<?xml version="1.0" encoding="utf-8"?>
<!-- Generator: Adobe Illustrator 18.1.0, SVG Export Plug-In . SVG Version: 6.00 Build 0)  -->
<svg version="1.1" id="Layer_1" xmlns="http://www.w3.org/2000/svg" xmlns:xlink="http://www.w3.org/1999/xlink" x="0px" y="0px"
	 viewBox="-479 481 40 40" enable-background="new -479 481 40 40" xml:space="preserve">
<path fill="#9D9FA2" d="M-459,521c-11,0-20-9-20-20s9-20,20-20c11.1,0,20,9,20,20S-448,521-459,521z M-459,483c-9.9,0-18,8.1-18,18
	s8.1,18,18,18c9.9,0,18-8.1,18-18S-449.1,483-459,483z M-450,508h-18c-0.5,0-1-0.5-1-1s0.5-1,1-1h18c0.5,0,1,0.5,1,1
	S-449.5,508-450,508z M-450,502h-18c-0.5,0-1-0.5-1-1s0.5-1,1-1h18c0.5,0,1,0.5,1,1S-449.5,502-450,502z M-450,495h-18
	c-0.5,0-1-0.5-1-1s0.5-1,1-1h18c0.5,0,1,0.5,1,1S-449.5,495-450,495z"/>
</svg>
